<svg xmlns="http://www.w3.org/2000/svg" width="68.087" height="68.087"><path d="M33.869 59.737c-.35 0-.7-.157-.93-.463-.388-.514-.288-1.243.227-1.634l31.066-23.598-31.069-23.595c-.513-.39-.614-1.121-.226-1.634.393-.517 1.122-.615 1.637-.225l33.513 25.456L34.576 59.5c-.212.159-.462.237-.707.237zM1.875 59.5l33.511-25.457L1.875 8.587c-.516-.39-1.245-.291-1.637.225-.388.513-.288 1.244.227 1.634l31.066 23.596L.461 57.641c-.513.391-.613 1.12-.226 1.634.234.306.582.463.932.463.246-.001.496-.079.708-.238z"/></svg>